<?xml version="1.0" encoding="UTF-8" standalone="no"?>
<!-- Created with Inkscape (http://www.inkscape.org/) -->

<svg
   width="18.607624mm"
   height="9.1323643mm"
   viewBox="0 0 18.607624 9.1323643"
   version="1.1"
   id="svg1"
   inkscape:version="1.3.2 (091e20e, 2023-11-25, custom)"
   sodipodi:docname="JS_Logo_v2.svg"
   inkscape:export-filename="JS_black.svg"
   inkscape:export-xdpi="96"
   inkscape:export-ydpi="96"
   xmlns:inkscape="http://www.inkscape.org/namespaces/inkscape"
   xmlns:sodipodi="http://sodipodi.sourceforge.net/DTD/sodipodi-0.dtd"
   xmlns="http://www.w3.org/2000/svg"
   xmlns:svg="http://www.w3.org/2000/svg">
  <sodipodi:namedview
     id="namedview1"
     pagecolor="#ffffff"
     bordercolor="#000000"
     borderopacity="0.25"
     inkscape:showpageshadow="2"
     inkscape:pageopacity="0.0"
     inkscape:pagecheckerboard="true"
     inkscape:deskcolor="#d1d1d1"
     inkscape:document-units="mm"
     inkscape:zoom="16.719529"
     inkscape:cx="29.247235"
     inkscape:cy="21.741043"
     inkscape:window-width="2560"
     inkscape:window-height="1369"
     inkscape:window-x="-8"
     inkscape:window-y="-8"
     inkscape:window-maximized="1"
     inkscape:current-layer="layer1"
     inkscape:clip-to-page="false" />
  <defs
     id="defs1" />
  <g
     inkscape:label="Ebene 1"
     inkscape:groupmode="layer"
     id="layer1"
     transform="translate(-54.572477,-102.56357)">
    <path
       id="text2"
       style="font-style:normal;font-variant:normal;font-weight:normal;font-stretch:condensed;font-size:9.87777px;font-family:'Gill Sans Ultra Bold Condensed';-inkscape-font-specification:'Gill Sans Ultra Bold Condensed,  Condensed';fill:#000000;stroke-width:0.264583"
       d="M 54.572477 102.56357 L 54.572477 111.59713 L 57.538704 111.59713 L 57.538704 110.07319 L 56.366683 110.07319 L 56.366683 104.08751 L 57.538704 104.08751 L 57.538704 102.56357 L 54.572477 102.56357 z M 70.2139 102.56357 L 70.2139 104.08751 L 71.385921 104.08751 L 71.385921 110.07319 L 70.2139 110.07319 L 70.2139 111.59713 L 73.180127 111.59713 L 73.180127 102.56357 L 70.2139 102.56357 z M 61.430973 102.76356 L 61.430973 107.1235 C 61.430973 107.55436 61.373095 107.86161 61.25734 108.04489 C 61.144801 108.22495 60.966344 108.31516 60.721972 108.31516 C 60.567632 108.31516 60.448489 108.28427 60.364888 108.22317 C 60.242702 108.12993 60.155886 108.00791 60.104439 107.85679 C 60.052992 107.70566 60.026006 107.47415 60.02279 107.16226 L 57.934029 107.44699 C 57.972614 107.99361 58.098016 108.45325 58.310233 108.82624 C 58.525666 109.19601 58.829525 109.47719 59.221806 109.67011 C 59.614086 109.86304 60.167313 109.9595 60.881136 109.9595 C 61.537032 109.9595 62.076902 109.82062 62.502226 109.54454 L 63.396745 102.76356 L 61.430973 102.76356 z M 66.466325 104.26321 C 65.729994 104.26321 65.149781 104.35628 64.725346 104.54278 C 64.447393 104.66372 64.215693 104.81602 64.028747 104.99856 L 63.748661 107.32245 C 63.838309 107.45704 63.946922 107.58268 64.078873 107.69711 C 64.487231 108.05402 65.170683 108.34002 66.128878 108.55545 C 66.714083 108.68407 67.086901 108.82107 67.247672 108.96576 C 67.408443 109.11046 67.489001 109.27444 67.489001 109.45772 C 67.489001 109.65065 67.40362 109.82089 67.233203 109.9688 C 67.066001 110.1135 66.826279 110.18584 66.514384 110.18584 C 66.09638 110.18584 65.775181 110.04258 65.550102 109.75641 C 65.411839 109.57956 65.320199 109.3225 65.275183 108.98488 L 63.535237 109.09392 L 63.420516 110.04632 C 63.552827 110.35864 63.73908 110.63722 63.982239 110.88038 C 64.445259 111.3434 65.278228 111.57491 66.480794 111.57491 C 67.165678 111.57491 67.733374 111.47701 68.183533 111.28087 C 68.633691 111.08151 68.983829 110.79017 69.234631 110.40754 C 69.485434 110.0249 69.610836 109.60724 69.610836 109.15387 C 69.610836 108.76802 69.516325 108.4188 69.326615 108.1069 C 69.140121 107.79501 68.839133 107.53456 68.424345 107.32555 C 68.012771 107.11334 67.329836 106.9045 66.374857 106.69872 C 65.989007 106.61833 65.744462 106.53152 65.641569 106.43827 C 65.53546 106.34824 65.482405 106.24695 65.482405 106.13441 C 65.482405 105.98007 65.546542 105.84985 65.675158 105.74374 C 65.803775 105.63441 65.995266 105.57992 66.249284 105.57992 C 66.557964 105.57992 66.799121 105.65227 66.972754 105.79696 C 67.149602 105.94166 67.265357 106.17317 67.320019 106.4915 L 69.379325 106.37057 C 69.289293 105.63746 69.00668 105.10404 68.530798 104.76964 C 68.058132 104.43202 67.369857 104.26321 66.466325 104.26321 z " />
  </g>
</svg>
